<svg width="40" height="40" viewBox="0 0 40 40" fill="none" xmlns="http://www.w3.org/2000/svg">
<path d="M3.85008 18.7366C3.78881 18.491 3.78431 18.2346 3.83691 17.987C3.88952 17.7393 3.99784 17.5069 4.15367 17.3074C4.3095 17.1079 4.50873 16.9465 4.73624 16.8355C4.96376 16.7244 5.21358 16.6667 5.46674 16.6666H34.5334C34.7866 16.6667 35.0364 16.7244 35.2639 16.8355C35.4914 16.9465 35.6907 17.1079 35.8465 17.3074C36.0023 17.5069 36.1106 17.7393 36.1632 17.987C36.2158 18.2346 36.2113 18.491 36.1501 18.7366L33.1317 30.8083C32.9515 31.5294 32.5354 32.1696 31.9495 32.6271C31.3637 33.0846 30.6417 33.3332 29.8984 33.3333H10.1017C9.35842 33.3332 8.63647 33.0846 8.05063 32.6271C7.46478 32.1696 7.04866 31.5294 6.86841 30.8083L3.85008 18.7383V18.7366Z" stroke="white" stroke-width="2" stroke-linejoin="round"/>
<path d="M15 23.3333V26.6666" stroke="white" stroke-width="2" stroke-linecap="round"/>
<path d="M25 23.3333V26.6666" stroke="white" stroke-width="2" stroke-linecap="round"/>
<path d="M10 16.6666L16.6667 6.66663" stroke="white" stroke-width="2" stroke-linecap="round"/>
<path d="M30.0002 16.6666L23.3335 6.66663" stroke="white" stroke-width="2" stroke-linecap="round"/>
</svg>
