<svg width="45" height="45" viewBox="0 0 45 45" fill="none" xmlns="http://www.w3.org/2000/svg">
<g clip-path="url(#clip0_367_151)">
<path d="M22.5 5.01507C19.7297 2.63288 15.7134 2.27851 12.0572 2.64413C7.79906 3.07444 3.50156 4.53413 0.824063 5.75194C0.578388 5.86368 0.370056 6.04375 0.223934 6.27066C0.0778126 6.49757 7.47321e-05 6.76174 0 7.03163L0 37.9691C6.51431e-05 38.2044 0.059167 38.4359 0.171892 38.6425C0.284617 38.849 0.447361 39.0239 0.645218 39.1513C0.843075 39.2786 1.06972 39.3543 1.30439 39.3713C1.53906 39.3883 1.77426 39.3462 1.98844 39.2488C4.46906 38.1238 8.46563 36.771 12.3384 36.3801C16.3013 35.9807 19.6228 36.6248 21.4031 38.8466C21.5349 39.0109 21.7019 39.1434 21.8917 39.2345C22.0816 39.3256 22.2894 39.3729 22.5 39.3729C22.7106 39.3729 22.9184 39.3256 23.1083 39.2345C23.2981 39.1434 23.4651 39.0109 23.5969 38.8466C25.3772 36.6248 28.6988 35.9807 32.6588 36.3801C36.5344 36.771 40.5338 38.1238 43.0116 39.2488C43.2257 39.3462 43.4609 39.3883 43.6956 39.3713C43.9303 39.3543 44.1569 39.2786 44.3548 39.1513C44.5526 39.0239 44.7154 38.849 44.8281 38.6425C44.9408 38.4359 44.9999 38.2044 45 37.9691V7.03163C44.9999 6.76174 44.9222 6.49757 44.7761 6.27066C44.6299 6.04375 44.4216 5.86368 44.1759 5.75194C41.4984 4.53413 37.2009 3.07444 32.9428 2.64413C29.2866 2.27569 25.2703 2.63288 22.5 5.01507Z" fill="#7B0AC4"/>
</g>
<defs>
<clipPath id="clip0_367_151">
<rect width="45" height="45" fill="white"/>
</clipPath>
</defs>
</svg>
