<svg width="34" height="31" viewBox="0 0 34 31" fill="none" xmlns="http://www.w3.org/2000/svg">
<path d="M28.6667 0.5H5.33334C4.00726 0.5 2.73549 1.09263 1.79781 2.14752C0.860128 3.20242 0.333344 4.63316 0.333344 6.125V24.875C0.333344 26.3668 0.860128 27.7976 1.79781 28.8525C2.73549 29.9074 4.00726 30.5 5.33334 30.5H28.6667C29.9928 30.5 31.2645 29.9074 32.2022 28.8525C33.1399 27.7976 33.6667 26.3668 33.6667 24.875V6.125C33.6667 4.63316 33.1399 3.20242 32.2022 2.14752C31.2645 1.09263 29.9928 0.5 28.6667 0.5ZM28.6667 4.25L17.8333 12.6313C17.58 12.7958 17.2926 12.8825 17 12.8825C16.7074 12.8825 16.42 12.7958 16.1667 12.6313L5.33334 4.25H28.6667Z" fill="white"/>
</svg>
