<svg width="44" height="44" viewBox="0 0 44 44" fill="none" xmlns="http://www.w3.org/2000/svg">
<path d="M22 41.25C16.8946 41.25 11.9983 39.2219 8.38819 35.6118C4.77812 32.0017 2.75 27.1054 2.75 22C2.75 16.8946 4.77812 11.9983 8.38819 8.38819C11.9983 4.77812 16.8946 2.75 22 2.75C27.1054 2.75 32.0017 4.77812 35.6118 8.38819C39.2219 11.9983 41.25 16.8946 41.25 22C41.25 27.1054 39.2219 32.0017 35.6118 35.6118C32.0017 39.2219 27.1054 41.25 22 41.25ZM22 44C27.8348 44 33.4305 41.6822 37.5564 37.5564C41.6822 33.4305 44 27.8348 44 22C44 16.1652 41.6822 10.5695 37.5564 6.44365C33.4305 2.31785 27.8348 0 22 0C16.1652 0 10.5695 2.31785 6.44365 6.44365C2.31785 10.5695 0 16.1652 0 22C0 27.8348 2.31785 33.4305 6.44365 37.5564C10.5695 41.6822 16.1652 44 22 44Z" fill="white"/>
<path d="M11.7837 26.3092C12.0995 26.1269 12.4748 26.0775 12.827 26.1719C13.1792 26.2663 13.4796 26.4967 13.6619 26.8125C14.5065 28.2764 15.7218 29.492 17.1856 30.3369C18.6493 31.1817 20.3098 31.626 21.9999 31.625C23.69 31.626 25.3505 31.1817 26.8143 30.3369C28.278 29.492 29.4934 28.2764 30.3379 26.8125C30.4275 26.6549 30.5475 26.5165 30.6908 26.4054C30.8341 26.2943 30.998 26.2126 31.173 26.1651C31.348 26.1176 31.5306 26.1052 31.7104 26.1286C31.8903 26.1519 32.0637 26.2107 32.2207 26.3013C32.3778 26.392 32.5153 26.5128 32.6255 26.6569C32.7356 26.8009 32.8162 26.9653 32.8625 27.1406C32.9089 27.316 32.9201 27.4987 32.8955 27.6784C32.871 27.858 32.8111 28.0311 32.7194 28.1875C31.6335 30.0695 30.071 31.6322 28.1892 32.7184C26.3074 33.8046 24.1727 34.376 21.9999 34.375C19.8271 34.376 17.6924 33.8046 15.8106 32.7184C13.9288 31.6322 12.3663 30.0695 11.2804 28.1875C11.0981 27.8717 11.0487 27.4964 11.143 27.1442C11.2374 26.7919 11.4679 26.4916 11.7837 26.3092ZM19.2499 17.875C19.2499 20.152 18.0179 22 16.4999 22C14.9819 22 13.7499 20.152 13.7499 17.875C13.7499 15.598 14.9819 13.75 16.4999 13.75C18.0179 13.75 19.2499 15.598 19.2499 17.875ZM30.2499 17.875C30.2499 20.152 29.0179 22 27.4999 22C25.9819 22 24.7499 20.152 24.7499 17.875C24.7499 15.598 25.9819 13.75 27.4999 13.75C29.0179 13.75 30.2499 15.598 30.2499 17.875Z" fill="white"/>
</svg>
