<svg width="51" height="50" viewBox="0 0 51 50" fill="none" xmlns="http://www.w3.org/2000/svg">
<g clip-path="url(#clip0_112_46)">
<path fill-rule="evenodd" clip-rule="evenodd" d="M0.707275 25.1396C0.707275 37.5687 9.73436 47.9042 21.5406 50V31.9437H15.2906V25H21.5406V19.4438C21.5406 13.1937 25.5677 9.72292 31.2635 9.72292C33.0677 9.72292 35.0135 10 36.8177 10.2771V16.6667H33.6239C30.5677 16.6667 29.8739 18.1937 29.8739 20.1396V25H36.5406L35.4302 31.9437H29.8739V50C41.6802 47.9042 50.7073 37.5708 50.7073 25.1396C50.7073 11.3125 39.4573 0 25.7073 0C11.9573 0 0.707275 11.3125 0.707275 25.1396Z" fill="#EAF84D"/>
</g>
<defs>
<clipPath id="clip0_112_46">
<rect width="50" height="50" fill="white" transform="translate(0.707275)"/>
</clipPath>
</defs>
</svg>
