<svg width="51" height="50" viewBox="0 0 51 50" fill="none" xmlns="http://www.w3.org/2000/svg">
<path fill-rule="evenodd" clip-rule="evenodd" d="M2.9126 5.91267C2.9126 4.89711 3.31603 3.92315 4.03414 3.20504C4.75224 2.48693 5.72621 2.0835 6.74176 2.0835H44.9126C45.4159 2.08268 45.9144 2.18113 46.3796 2.37322C46.8447 2.56531 47.2675 2.84727 47.6235 3.20295C47.9796 3.55863 48.262 3.98105 48.4546 4.44602C48.6472 4.91099 48.7462 5.40939 48.7459 5.91267V44.0835C48.7465 44.5869 48.6478 45.0854 48.4554 45.5506C48.2631 46.0158 47.981 46.4385 47.6251 46.7946C47.2693 47.1506 46.8467 47.433 46.3816 47.6256C45.9165 47.8181 45.4181 47.9171 44.9147 47.9168H6.74176C6.23874 47.9168 5.74064 47.8177 5.27592 47.6252C4.81121 47.4326 4.389 47.1504 4.0334 46.7946C3.6778 46.4388 3.39579 46.0164 3.20348 45.5516C3.01117 45.0868 2.91232 44.5886 2.9126 44.0856V5.91267ZM21.0543 19.5585H27.2605V22.6752C28.1563 20.8835 30.448 19.271 33.8918 19.271C40.4938 19.271 42.0584 22.8398 42.0584 29.3877V41.5168H35.3772V30.8793C35.3772 27.1502 34.4813 25.046 32.2063 25.046C29.0501 25.046 27.7376 27.3148 27.7376 30.8793V41.5168H21.0543V19.5585ZM9.59593 41.2314H16.2793V19.271H9.59593V41.2293V41.2314ZM17.2355 12.1085C17.2481 12.6807 17.1463 13.2497 16.936 13.7821C16.7257 14.3144 16.4112 14.7994 16.011 15.2086C15.6107 15.6177 15.1328 15.9428 14.6052 16.1648C14.0776 16.3867 13.511 16.501 12.9386 16.501C12.3663 16.501 11.7997 16.3867 11.2721 16.1648C10.7445 15.9428 10.2665 15.6177 9.86628 15.2086C9.46603 14.7994 9.15154 14.3144 8.94127 13.7821C8.73099 13.2497 8.62916 12.6807 8.64176 12.1085C8.6665 10.9853 9.13007 9.9164 9.93319 9.13076C10.7363 8.34513 11.8151 7.90521 12.9386 7.90521C14.0621 7.90521 15.141 8.34513 15.9441 9.13076C16.7472 9.9164 17.2108 10.9853 17.2355 12.1085Z" fill="#EAF84D"/>
</svg>
