<svg width="51" height="50" viewBox="0 0 51 50" fill="none" xmlns="http://www.w3.org/2000/svg">
<g clip-path="url(#clip0_112_43)">
<path d="M50.1342 10.2856C48.3947 11.0565 46.5259 11.5773 44.5613 11.8127C46.5884 10.5998 48.105 8.69076 48.828 6.44187C46.9235 7.5731 44.8391 8.36936 42.6655 8.79604C41.2038 7.23534 39.2677 6.20088 37.1578 5.85327C35.048 5.50566 32.8824 5.86435 30.9972 6.87364C29.1121 7.88294 27.6129 9.48637 26.7325 11.435C25.852 13.3836 25.6395 15.5684 26.128 17.6502C22.269 17.4564 18.4939 16.4534 15.0476 14.7063C11.6014 12.9591 8.561 10.5068 6.12383 7.50853C5.29049 8.94603 4.81133 10.6127 4.81133 12.3877C4.8104 13.9856 5.2039 15.559 5.95691 16.9684C6.70992 18.3777 7.79916 19.5794 9.12799 20.4669C7.5869 20.4178 6.07981 20.0014 4.73216 19.2523V19.3773C4.73201 21.6184 5.50723 23.7906 6.92629 25.5252C8.34536 27.2598 10.3209 28.4501 12.5176 28.894C11.088 29.2809 9.58911 29.3379 8.13424 29.0606C8.75403 30.989 9.96132 32.6753 11.5871 33.8834C13.2129 35.0915 15.1757 35.761 17.2009 35.7981C13.7631 38.4969 9.51734 39.9608 5.14674 39.9544C4.37254 39.9546 3.59899 39.9094 2.83008 39.819C7.26649 42.6714 12.4308 44.1852 17.7051 44.1794C35.5592 44.1794 45.3197 29.3919 45.3197 16.5669C45.3197 16.1502 45.3092 15.7294 45.2905 15.3127C47.189 13.9397 48.8278 12.2396 50.1301 10.2919L50.1342 10.2856Z" fill="#EAF84D"/>
</g>
<defs>
<clipPath id="clip0_112_43">
<rect width="50" height="50" fill="white" transform="translate(0.87793)"/>
</clipPath>
</defs>
</svg>
