<svg width="34" height="34" viewBox="0 0 34 34" fill="none" xmlns="http://www.w3.org/2000/svg">
<path d="M17 17.0002C20.912 17.0002 24.0833 13.8288 24.0833 9.91683C24.0833 6.00481 20.912 2.8335 17 2.8335C13.088 2.8335 9.91666 6.00481 9.91666 9.91683C9.91666 13.8288 13.088 17.0002 17 17.0002Z" stroke="white" stroke-width="2"/>
<path d="M24.0833 19.8335H24.582C25.6177 19.8338 26.6176 20.2123 27.394 20.8978C28.1703 21.5834 28.6696 22.5288 28.798 23.5565L29.3519 27.9822C29.4017 28.3809 29.3662 28.7856 29.2476 29.1695C29.1291 29.5534 28.9303 29.9077 28.6643 30.2089C28.3984 30.5101 28.0714 30.7512 27.7051 30.9164C27.3388 31.0816 26.9416 31.1669 26.5398 31.1668H7.46017C7.05838 31.1669 6.66116 31.0816 6.29489 30.9164C5.92861 30.7512 5.60165 30.5101 5.3357 30.2089C5.06976 29.9077 4.87091 29.5534 4.75236 29.1695C4.63381 28.7856 4.59827 28.3809 4.64809 27.9822L5.20059 23.5565C5.32907 22.5283 5.82876 21.5825 6.60568 20.8969C7.38261 20.2113 8.38324 19.8331 9.41942 19.8335H9.91667" stroke="white" stroke-width="2" stroke-linecap="round" stroke-linejoin="round"/>
</svg>
